<mxfile modified="2021-01-24T04:18:27.074Z" host="app.diagrams.net" agent="5.0 (Macintosh; Intel Mac OS X 10_15_7) AppleWebKit/605.1.15 (KHTML, like Gecko) Version/14.0.2 Safari/605.1.15" etag="YUtElrEbKnjThZcKoepT" version="14.2.7" type="github">
  <diagram id="l8hXMBHkgcEJcSW0mbfh" name="Page-1">
    <mxGraphModel dx="1301" dy="753" grid="1" gridSize="10" guides="1" tooltips="1" connect="1" arrows="1" fold="1" page="1" pageScale="1" pageWidth="1169" pageHeight="827" math="0" shadow="0">
      <root>
        <mxCell id="0" />
        <mxCell id="1" parent="0" />
        <mxCell id="c566kchRVXLOq-2EIQAN-4" value="RS-232 to RJ-45" style="shape=image;html=1;verticalAlign=top;verticalLabelPosition=bottom;labelBackgroundColor=#ffffff;imageAspect=0;aspect=fixed;image=https://cdn4.iconfinder.com/data/icons/johaupt_free_icons_01/com_plug01.png" vertex="1" parent="1">
          <mxGeometry x="100" y="712" width="62" height="62" as="geometry" />
        </mxCell>
        <mxCell id="c566kchRVXLOq-2EIQAN-7" value="3" style="shape=image;html=1;verticalAlign=top;verticalLabelPosition=bottom;labelBackgroundColor=#ffffff;imageAspect=0;aspect=fixed;image=https://cdn2.iconfinder.com/data/icons/plastic-xp-network/128/Standard_Modular_Connection_Slot.png;fontSize=20;" vertex="1" parent="1">
          <mxGeometry x="530" y="140" width="80" height="80" as="geometry" />
        </mxCell>
        <mxCell id="c566kchRVXLOq-2EIQAN-8" value="5" style="shape=image;html=1;verticalAlign=top;verticalLabelPosition=bottom;labelBackgroundColor=#ffffff;imageAspect=0;aspect=fixed;image=https://cdn2.iconfinder.com/data/icons/plastic-xp-network/128/Standard_Modular_Connection_Slot.png;fontSize=20;" vertex="1" parent="1">
          <mxGeometry x="183" y="540" width="80" height="80" as="geometry" />
        </mxCell>
        <mxCell id="c566kchRVXLOq-2EIQAN-9" value="" style="group" vertex="1" connectable="0" parent="1">
          <mxGeometry x="162" y="700" width="128" height="160" as="geometry" />
        </mxCell>
        <mxCell id="c566kchRVXLOq-2EIQAN-2" value="Arduino Nano 33 iot&lt;br&gt;&lt;br&gt;Max 3232 RS-232 to TTL serial port modules" style="dashed=0;outlineConnect=0;html=1;align=center;labelPosition=center;verticalLabelPosition=bottom;verticalAlign=top;shape=mxgraph.weblogos.arduino;fillColor=#36868D;strokeColor=none" vertex="1" parent="c566kchRVXLOq-2EIQAN-9">
          <mxGeometry x="31" y="128" width="67.4" height="32" as="geometry" />
        </mxCell>
        <mxCell id="c566kchRVXLOq-2EIQAN-3" value="" style="shape=image;html=1;verticalAlign=top;verticalLabelPosition=bottom;labelBackgroundColor=#ffffff;imageAspect=0;aspect=fixed;image=https://cdn2.iconfinder.com/data/icons/electronic-13/480/3-electronic-arduino-chipset-icon-2-128.png" vertex="1" parent="c566kchRVXLOq-2EIQAN-9">
          <mxGeometry width="128" height="128" as="geometry" />
        </mxCell>
        <mxCell id="c566kchRVXLOq-2EIQAN-10" value="RS-232 to RJ-45" style="shape=image;html=1;verticalAlign=top;verticalLabelPosition=bottom;labelBackgroundColor=#ffffff;imageAspect=0;aspect=fixed;image=https://cdn4.iconfinder.com/data/icons/johaupt_free_icons_01/com_plug01.png" vertex="1" parent="1">
          <mxGeometry x="290" y="712" width="62" height="62" as="geometry" />
        </mxCell>
        <mxCell id="c566kchRVXLOq-2EIQAN-11" value="Panasonic Projector&lt;br&gt;AE-PT4000" style="fontColor=#0066CC;verticalAlign=top;verticalLabelPosition=bottom;labelPosition=center;align=center;html=1;outlineConnect=0;fillColor=#CCCCCC;strokeColor=#6881B3;gradientColor=none;gradientDirection=north;strokeWidth=2;shape=mxgraph.networks.video_projector;" vertex="1" parent="1">
          <mxGeometry x="200" y="400" width="100" height="35" as="geometry" />
        </mxCell>
        <mxCell id="c566kchRVXLOq-2EIQAN-12" value="" style="endArrow=none;html=1;entryX=0.5;entryY=1;entryDx=0;entryDy=0;exitX=0.5;exitY=0;exitDx=0;exitDy=0;strokeWidth=3;fillColor=#0050ef;strokeColor=#001DBC;" edge="1" parent="1" source="c566kchRVXLOq-2EIQAN-4" target="c566kchRVXLOq-2EIQAN-8">
          <mxGeometry width="50" height="50" relative="1" as="geometry">
            <mxPoint x="580" y="510" as="sourcePoint" />
            <mxPoint x="630" y="460" as="targetPoint" />
          </mxGeometry>
        </mxCell>
        <mxCell id="c566kchRVXLOq-2EIQAN-13" value="" style="endArrow=none;html=1;exitX=0.5;exitY=0;exitDx=0;exitDy=0;entryX=0.5;entryY=1;entryDx=0;entryDy=0;fillColor=#0050ef;strokeColor=#001DBC;strokeWidth=3;" edge="1" parent="1" source="c566kchRVXLOq-2EIQAN-10" target="c566kchRVXLOq-2EIQAN-8">
          <mxGeometry width="50" height="50" relative="1" as="geometry">
            <mxPoint x="163.82945736434112" y="722" as="sourcePoint" />
            <mxPoint x="220" y="620" as="targetPoint" />
          </mxGeometry>
        </mxCell>
        <mxCell id="c566kchRVXLOq-2EIQAN-16" value="" style="shape=image;html=1;verticalAlign=top;verticalLabelPosition=bottom;labelBackgroundColor=#ffffff;imageAspect=0;aspect=fixed;image=https://cdn2.iconfinder.com/data/icons/plastic-xp-network/128/Standard_Modular_Connection_Slot.png;fontSize=20;" vertex="1" parent="1">
          <mxGeometry x="370" y="140" width="80" height="80" as="geometry" />
        </mxCell>
        <mxCell id="c566kchRVXLOq-2EIQAN-17" value="" style="shape=image;html=1;verticalAlign=top;verticalLabelPosition=bottom;labelBackgroundColor=#ffffff;imageAspect=0;aspect=fixed;image=https://cdn2.iconfinder.com/data/icons/plastic-xp-network/128/Standard_Modular_Connection_Slot.png;fontSize=20;" vertex="1" parent="1">
          <mxGeometry x="210" y="140" width="80" height="80" as="geometry" />
        </mxCell>
        <mxCell id="c566kchRVXLOq-2EIQAN-19" value="" style="endArrow=none;html=1;fontSize=20;fillColor=#0050ef;strokeColor=#001DBC;strokeWidth=3;dashed=1;" edge="1" parent="1" source="c566kchRVXLOq-2EIQAN-17" target="c566kchRVXLOq-2EIQAN-16">
          <mxGeometry width="50" height="50" relative="1" as="geometry">
            <mxPoint x="290" y="400" as="sourcePoint" />
            <mxPoint x="340" y="350" as="targetPoint" />
          </mxGeometry>
        </mxCell>
        <mxCell id="c566kchRVXLOq-2EIQAN-20" value="Pioneer&lt;br&gt;Amplifier&lt;br&gt;LX-81" style="rounded=0;whiteSpace=wrap;html=1;fontSize=20;" vertex="1" parent="1">
          <mxGeometry x="500" y="377.5" width="140" height="80" as="geometry" />
        </mxCell>
        <mxCell id="c566kchRVXLOq-2EIQAN-21" value="Projector On" style="labelPosition=center;verticalLabelPosition=middle;align=center;html=1;shape=mxgraph.basic.shaded_button;dx=10;fillColor=#E6E6E6;strokeColor=none;fontSize=20;" vertex="1" parent="1">
          <mxGeometry x="445" y="620" width="150" height="60" as="geometry" />
        </mxCell>
        <mxCell id="c566kchRVXLOq-2EIQAN-22" value="Projector Off" style="labelPosition=center;verticalLabelPosition=middle;align=center;html=1;shape=mxgraph.basic.shaded_button;dx=10;fillColor=#E6E6E6;strokeColor=none;fontSize=20;" vertex="1" parent="1">
          <mxGeometry x="605" y="620" width="150" height="60" as="geometry" />
        </mxCell>
        <mxCell id="c566kchRVXLOq-2EIQAN-23" value="Amp On" style="labelPosition=center;verticalLabelPosition=middle;align=center;html=1;shape=mxgraph.basic.shaded_button;dx=10;fillColor=#E6E6E6;strokeColor=none;fontSize=20;" vertex="1" parent="1">
          <mxGeometry x="445" y="700" width="150" height="60" as="geometry" />
        </mxCell>
        <mxCell id="c566kchRVXLOq-2EIQAN-24" value="Amp Off" style="labelPosition=center;verticalLabelPosition=middle;align=center;html=1;shape=mxgraph.basic.shaded_button;dx=10;fillColor=#E6E6E6;strokeColor=none;fontSize=20;" vertex="1" parent="1">
          <mxGeometry x="605" y="700" width="150" height="60" as="geometry" />
        </mxCell>
        <mxCell id="c566kchRVXLOq-2EIQAN-25" value="Playstation" style="labelPosition=center;verticalLabelPosition=middle;align=center;html=1;shape=mxgraph.basic.shaded_button;dx=10;fillColor=#E6E6E6;strokeColor=none;fontSize=20;" vertex="1" parent="1">
          <mxGeometry x="445" y="780" width="150" height="60" as="geometry" />
        </mxCell>
        <mxCell id="c566kchRVXLOq-2EIQAN-26" value="Apple TV" style="labelPosition=center;verticalLabelPosition=middle;align=center;html=1;shape=mxgraph.basic.shaded_button;dx=10;fillColor=#E6E6E6;strokeColor=none;fontSize=20;" vertex="1" parent="1">
          <mxGeometry x="605" y="780" width="150" height="60" as="geometry" />
        </mxCell>
        <mxCell id="c566kchRVXLOq-2EIQAN-27" value="Tuner" style="labelPosition=center;verticalLabelPosition=middle;align=center;html=1;shape=mxgraph.basic.shaded_button;dx=10;fillColor=#E6E6E6;strokeColor=none;fontSize=20;" vertex="1" parent="1">
          <mxGeometry x="445" y="860" width="150" height="60" as="geometry" />
        </mxCell>
        <mxCell id="c566kchRVXLOq-2EIQAN-28" value="TV" style="labelPosition=center;verticalLabelPosition=middle;align=center;html=1;shape=mxgraph.basic.shaded_button;dx=10;fillColor=#E6E6E6;strokeColor=none;fontSize=20;" vertex="1" parent="1">
          <mxGeometry x="605" y="860" width="150" height="60" as="geometry" />
        </mxCell>
        <mxCell id="c566kchRVXLOq-2EIQAN-29" value="Volume Down" style="labelPosition=center;verticalLabelPosition=middle;align=center;html=1;shape=mxgraph.basic.shaded_button;dx=10;fillColor=#E6E6E6;strokeColor=none;fontSize=20;" vertex="1" parent="1">
          <mxGeometry x="440" y="940" width="150" height="60" as="geometry" />
        </mxCell>
        <mxCell id="c566kchRVXLOq-2EIQAN-30" value="Volume Up" style="labelPosition=center;verticalLabelPosition=middle;align=center;html=1;shape=mxgraph.basic.shaded_button;dx=10;fillColor=#E6E6E6;strokeColor=none;fontSize=20;" vertex="1" parent="1">
          <mxGeometry x="605" y="940" width="150" height="60" as="geometry" />
        </mxCell>
        <mxCell id="c566kchRVXLOq-2EIQAN-31" value="5" style="shape=image;html=1;verticalAlign=top;verticalLabelPosition=bottom;labelBackgroundColor=#ffffff;imageAspect=0;aspect=fixed;image=https://cdn2.iconfinder.com/data/icons/plastic-xp-network/128/Standard_Modular_Connection_Slot.png;fontSize=20;" vertex="1" parent="1">
          <mxGeometry x="980" y="140" width="80" height="80" as="geometry" />
        </mxCell>
        <mxCell id="c566kchRVXLOq-2EIQAN-32" value="3" style="shape=image;html=1;verticalAlign=top;verticalLabelPosition=bottom;labelBackgroundColor=#ffffff;imageAspect=0;aspect=fixed;image=https://cdn2.iconfinder.com/data/icons/plastic-xp-network/128/Standard_Modular_Connection_Slot.png;fontSize=20;" vertex="1" parent="1">
          <mxGeometry x="840" y="140" width="80" height="80" as="geometry" />
        </mxCell>
        <mxCell id="c566kchRVXLOq-2EIQAN-33" value="4" style="shape=image;html=1;verticalAlign=top;verticalLabelPosition=bottom;labelBackgroundColor=#ffffff;imageAspect=0;aspect=fixed;image=https://cdn2.iconfinder.com/data/icons/plastic-xp-network/128/Standard_Modular_Connection_Slot.png;fontSize=20;" vertex="1" parent="1">
          <mxGeometry x="910" y="140" width="80" height="80" as="geometry" />
        </mxCell>
        <mxCell id="c566kchRVXLOq-2EIQAN-34" value="Patch Panel" style="text;html=1;strokeColor=none;fillColor=none;align=center;verticalAlign=middle;whiteSpace=wrap;rounded=0;fontSize=20;" vertex="1" parent="1">
          <mxGeometry x="885" y="260" width="130" height="20" as="geometry" />
        </mxCell>
        <mxCell id="c566kchRVXLOq-2EIQAN-35" value="&lt;font style=&quot;font-size: 12px&quot;&gt;plain patch cable&lt;/font&gt;" style="endArrow=none;html=1;fontSize=20;strokeWidth=3;fillColor=#0050ef;strokeColor=#001DBC;exitX=0.5;exitY=0;exitDx=0;exitDy=0;entryX=0.5;entryY=0;entryDx=0;entryDy=0;" edge="1" parent="1" source="c566kchRVXLOq-2EIQAN-32" target="c566kchRVXLOq-2EIQAN-31">
          <mxGeometry width="50" height="50" relative="1" as="geometry">
            <mxPoint x="870" y="100" as="sourcePoint" />
            <mxPoint x="1010" y="100" as="targetPoint" />
            <Array as="points">
              <mxPoint x="880" y="90" />
              <mxPoint x="1020" y="90" />
            </Array>
          </mxGeometry>
        </mxCell>
        <mxCell id="c566kchRVXLOq-2EIQAN-39" value="RS-232 to RJ-45" style="shape=image;html=1;verticalAlign=top;verticalLabelPosition=bottom;labelBackgroundColor=#ffffff;imageAspect=0;aspect=fixed;image=https://cdn4.iconfinder.com/data/icons/johaupt_free_icons_01/com_plug01.png" vertex="1" parent="1">
          <mxGeometry x="219" y="310" width="62" height="62" as="geometry" />
        </mxCell>
        <mxCell id="c566kchRVXLOq-2EIQAN-40" value="&lt;font style=&quot;font-size: 12px&quot;&gt;Pins 2, 3, 5&lt;/font&gt;" style="endArrow=none;html=1;fontSize=20;fillColor=#0050ef;strokeColor=#001DBC;strokeWidth=3;entryX=0.5;entryY=0;entryDx=0;entryDy=0;" edge="1" parent="1" source="c566kchRVXLOq-2EIQAN-17" target="c566kchRVXLOq-2EIQAN-39">
          <mxGeometry width="50" height="50" relative="1" as="geometry">
            <mxPoint x="300" y="210" as="sourcePoint" />
            <mxPoint x="420" y="210" as="targetPoint" />
          </mxGeometry>
        </mxCell>
        <mxCell id="c566kchRVXLOq-2EIQAN-42" value="RS-232 to RJ-45" style="shape=image;html=1;verticalAlign=top;verticalLabelPosition=bottom;labelBackgroundColor=#ffffff;imageAspect=0;aspect=fixed;image=https://cdn4.iconfinder.com/data/icons/johaupt_free_icons_01/com_plug01.png" vertex="1" parent="1">
          <mxGeometry x="539" y="290" width="62" height="62" as="geometry" />
        </mxCell>
        <mxCell id="c566kchRVXLOq-2EIQAN-43" value="&lt;font style=&quot;font-size: 12px&quot;&gt;Pins 2, 3, 5&lt;/font&gt;" style="endArrow=none;html=1;fontSize=20;fillColor=#0050ef;strokeColor=#001DBC;strokeWidth=3;" edge="1" parent="1" source="c566kchRVXLOq-2EIQAN-7" target="c566kchRVXLOq-2EIQAN-42">
          <mxGeometry width="50" height="50" relative="1" as="geometry">
            <mxPoint x="740" y="220" as="sourcePoint" />
            <mxPoint x="740" y="310" as="targetPoint" />
          </mxGeometry>
        </mxCell>
        <mxCell id="c566kchRVXLOq-2EIQAN-44" value="" style="endArrow=none;html=1;fontSize=20;fillColor=#0050ef;strokeColor=#001DBC;strokeWidth=3;" edge="1" parent="1" source="c566kchRVXLOq-2EIQAN-7" target="c566kchRVXLOq-2EIQAN-16">
          <mxGeometry width="50" height="50" relative="1" as="geometry">
            <mxPoint x="490" y="210" as="sourcePoint" />
            <mxPoint x="490" y="280" as="targetPoint" />
          </mxGeometry>
        </mxCell>
        <mxCell id="c566kchRVXLOq-2EIQAN-46" value="&lt;font style=&quot;font-size: 14px&quot;&gt;Y - Cable&lt;br&gt;&lt;/font&gt;pins 1, 2, 3, 5" style="whiteSpace=wrap;html=1;rounded=1;arcSize=50;align=center;verticalAlign=middle;strokeWidth=1;autosize=1;spacing=4;treeFolding=1;treeMoving=1;newEdgeStyle={&quot;edgeStyle&quot;:&quot;entityRelationEdgeStyle&quot;,&quot;startArrow&quot;:&quot;none&quot;,&quot;endArrow&quot;:&quot;none&quot;,&quot;segment&quot;:10,&quot;curved&quot;:1};fontSize=20;" vertex="1" parent="1">
          <mxGeometry x="310" y="30" width="160" height="60" as="geometry" />
        </mxCell>
        <mxCell id="c566kchRVXLOq-2EIQAN-47" value="" style="edgeStyle=entityRelationEdgeStyle;startArrow=none;endArrow=none;segment=10;curved=1;dashed=1;strokeWidth=3;fontSize=20;" edge="1" target="c566kchRVXLOq-2EIQAN-46" parent="1">
          <mxGeometry relative="1" as="geometry">
            <mxPoint x="490" y="180" as="sourcePoint" />
          </mxGeometry>
        </mxCell>
        <mxCell id="c566kchRVXLOq-2EIQAN-48" value="&lt;font style=&quot;font-size: 14px&quot;&gt;Y - Cable&lt;br&gt;&lt;/font&gt;pins 8, 7, 6, 4" style="whiteSpace=wrap;html=1;rounded=1;arcSize=50;align=center;verticalAlign=middle;strokeWidth=1;autosize=1;spacing=4;treeFolding=1;treeMoving=1;newEdgeStyle={&quot;edgeStyle&quot;:&quot;entityRelationEdgeStyle&quot;,&quot;startArrow&quot;:&quot;none&quot;,&quot;endArrow&quot;:&quot;none&quot;,&quot;segment&quot;:10,&quot;curved&quot;:1};fontSize=20;" vertex="1" parent="1">
          <mxGeometry x="630" y="260" width="160" height="60" as="geometry" />
        </mxCell>
        <mxCell id="c566kchRVXLOq-2EIQAN-49" value="" style="edgeStyle=entityRelationEdgeStyle;startArrow=none;endArrow=none;segment=10;curved=1;dashed=1;strokeWidth=3;fontSize=20;" edge="1" parent="1" target="c566kchRVXLOq-2EIQAN-48">
          <mxGeometry relative="1" as="geometry">
            <mxPoint x="570" y="270" as="sourcePoint" />
            <mxPoint x="730" y="270" as="targetPoint" />
          </mxGeometry>
        </mxCell>
        <mxCell id="c566kchRVXLOq-2EIQAN-50" value="" style="endArrow=none;html=1;fontSize=20;fillColor=#0050ef;strokeColor=#001DBC;strokeWidth=3;dashed=1;" edge="1" parent="1" source="c566kchRVXLOq-2EIQAN-8" target="c566kchRVXLOq-2EIQAN-31">
          <mxGeometry width="50" height="50" relative="1" as="geometry">
            <mxPoint x="300" y="190" as="sourcePoint" />
            <mxPoint x="380" y="190" as="targetPoint" />
            <Array as="points">
              <mxPoint x="1080" y="579" />
              <mxPoint x="1080" y="350" />
            </Array>
          </mxGeometry>
        </mxCell>
        <mxCell id="c566kchRVXLOq-2EIQAN-51" value="&lt;font style=&quot;font-size: 14px&quot;&gt;Y - Cable&lt;br&gt;&lt;/font&gt;pins 8, 7, 6, 4" style="whiteSpace=wrap;html=1;rounded=1;arcSize=50;align=center;verticalAlign=middle;strokeWidth=1;autosize=1;spacing=4;treeFolding=1;treeMoving=1;newEdgeStyle={&quot;edgeStyle&quot;:&quot;entityRelationEdgeStyle&quot;,&quot;startArrow&quot;:&quot;none&quot;,&quot;endArrow&quot;:&quot;none&quot;,&quot;segment&quot;:10,&quot;curved&quot;:1};fontSize=20;" vertex="1" parent="1">
          <mxGeometry x="263" y="590" width="160" height="60" as="geometry" />
        </mxCell>
        <mxCell id="c566kchRVXLOq-2EIQAN-52" value="" style="edgeStyle=entityRelationEdgeStyle;startArrow=none;endArrow=none;segment=10;curved=1;dashed=1;strokeWidth=3;fontSize=20;entryX=0.5;entryY=1;entryDx=0;entryDy=0;" edge="1" parent="1" target="c566kchRVXLOq-2EIQAN-51">
          <mxGeometry relative="1" as="geometry">
            <mxPoint x="280" y="670" as="sourcePoint" />
            <mxPoint x="360" y="680" as="targetPoint" />
          </mxGeometry>
        </mxCell>
        <mxCell id="c566kchRVXLOq-2EIQAN-53" value="&lt;font style=&quot;font-size: 14px&quot;&gt;Y - Cable&lt;br&gt;&lt;/font&gt;pins 1, 2, 3, 5" style="whiteSpace=wrap;html=1;rounded=1;arcSize=50;align=center;verticalAlign=middle;strokeWidth=1;autosize=1;spacing=4;treeFolding=1;treeMoving=1;newEdgeStyle={&quot;edgeStyle&quot;:&quot;entityRelationEdgeStyle&quot;,&quot;startArrow&quot;:&quot;none&quot;,&quot;endArrow&quot;:&quot;none&quot;,&quot;segment&quot;:10,&quot;curved&quot;:1};fontSize=20;" vertex="1" parent="1">
          <mxGeometry x="10" y="570" width="160" height="60" as="geometry" />
        </mxCell>
        <mxCell id="c566kchRVXLOq-2EIQAN-54" value="" style="edgeStyle=entityRelationEdgeStyle;startArrow=none;endArrow=none;segment=10;curved=1;dashed=1;strokeWidth=3;fontSize=20;exitX=0.5;exitY=1;exitDx=0;exitDy=0;" edge="1" parent="1" source="c566kchRVXLOq-2EIQAN-53">
          <mxGeometry relative="1" as="geometry">
            <mxPoint x="180" y="660" as="sourcePoint" />
            <mxPoint x="170" y="660" as="targetPoint" />
          </mxGeometry>
        </mxCell>
      </root>
    </mxGraphModel>
  </diagram>
</mxfile>
